<svg width="1409" height="552" viewBox="0 0 1409 552" fill="none" xmlns="http://www.w3.org/2000/svg">
<path d="M305.108 519.594H238.659C198.281 519.594 48 469.728 48 320.169C48 172.779 196.61 126.364 238.659 126.364H305.108C326.285 126.364 343.444 142.783 343.444 163.047C343.444 183.31 326.285 199.729 305.108 199.729H239.15C233.647 200.199 203.201 206.15 174.386 226.007C141.394 248.732 124.672 280.416 124.672 320.181C124.672 360.506 141.407 393.28 174.412 417.591C201.225 437.335 231.339 445.531 239.216 446.255H305.108C326.285 446.255 343.444 462.674 343.444 482.937C343.444 503.201 326.285 519.594 305.108 519.594ZM238.726 446.229C238.699 446.229 238.673 446.229 238.659 446.229H238.765C238.752 446.229 238.739 446.229 238.726 446.229ZM238.659 199.729C238.686 199.729 238.726 199.729 238.752 199.729H238.659Z" fill="white"/>
<path d="M1123.97 519.594H1110.08C1069.72 519.594 919.426 469.728 919.426 320.169V163.047C919.426 142.783 936.585 126.364 957.762 126.364C978.939 126.364 996.098 142.783 996.098 163.047V320.169C996.098 360.493 1012.83 393.267 1045.84 417.579C1072.65 437.322 1102.76 445.519 1110.64 446.242H1123.97C1145.15 446.242 1162.3 462.661 1162.3 482.924C1162.3 503.188 1145.13 519.594 1123.97 519.594ZM1110.15 446.229C1110.12 446.229 1110.1 446.229 1110.08 446.229H1110.19C1110.16 446.229 1110.16 446.229 1110.15 446.229Z" fill="white"/>
<path d="M1322.66 519.594H1308.78C1268.42 519.594 1118.12 469.728 1118.12 320.169V163.047C1118.12 142.783 1135.28 126.364 1156.46 126.364C1177.63 126.364 1194.79 142.783 1194.79 163.047V320.169C1194.79 360.493 1211.53 393.267 1244.53 417.579C1271.35 437.322 1301.46 445.519 1309.34 446.242H1322.66C1343.84 446.242 1361 462.661 1361 482.924C1361 503.188 1343.84 519.594 1322.66 519.594ZM1308.85 446.229C1308.82 446.229 1308.79 446.229 1308.78 446.229H1308.89C1308.87 446.229 1308.86 446.229 1308.85 446.229Z" fill="white"/>
<path d="M579.348 162.451C522.46 162.451 479.39 181.509 447.605 207.597V68.6825C447.605 48.419 430.446 32 409.269 32C388.092 32 370.933 48.419 370.933 68.6825V482.912C370.933 503.176 388.092 519.595 409.269 519.595C430.446 519.595 447.605 503.176 447.605 482.912V345.419C448.361 337.882 456.927 309.079 477.56 283.41C502.967 251.829 537.206 235.816 579.361 235.816C620.906 235.816 654.018 251.816 677.767 283.385C698.52 310.97 704.739 340.09 705.23 345.356V482.912C705.23 503.176 722.389 519.595 743.566 519.595C764.743 519.595 781.902 503.176 781.902 482.912V344.874C781.889 304.651 733.382 162.451 579.348 162.451Z" fill="white"/>
<path d="M850.007 519.595C828.83 519.595 811.671 503.176 811.671 482.913V199.451C811.671 179.187 828.83 162.768 850.007 162.768C871.184 162.768 888.343 179.187 888.343 199.451V482.913C888.343 503.176 871.184 519.595 850.007 519.595Z" fill="white"/>
<path d="M849.888 105.251C870.994 105.251 888.104 88.8788 888.104 68.6827C888.104 48.4866 870.994 32.1144 849.888 32.1144C828.781 32.1144 811.671 48.4866 811.671 68.6827C811.671 88.8788 828.781 105.251 849.888 105.251Z" fill="white"/>
</svg>
